<svg version="1.0" xmlns="http://www.w3.org/2000/svg"
 width="30" height="30" viewBox="0 0 512.000000 512.000000"
 preserveAspectRatio="xMidYMid meet">

<g transform="translate(0.000000,512.000000) scale(0.100000,-0.100000)"
fill="#000000" stroke="none">
<path d="M2445 4666 c-78 -34 -95 -86 -95 -286 l0 -160 211 0 210 0 -3 178 -3
179 -29 37 c-16 21 -44 44 -62 52 -43 18 -189 18 -229 0z"/>
<path d="M1560 3995 c-131 -37 -253 -126 -471 -344 -276 -276 -475 -561 -680
-971 -203 -407 -326 -807 -383 -1250 -58 -443 -13 -730 137 -884 77 -78 140
-100 287 -101 181 0 276 38 605 242 116 71 255 154 310 183 234 126 353 207
461 314 164 164 250 352 309 671 27 148 65 437 65 495 0 38 3 41 53 66 87 44
161 99 236 176 l71 72 71 -72 c74 -76 149 -132 234 -175 l50 -25 12 -125 c18
-184 61 -446 94 -575 55 -216 143 -378 273 -508 112 -111 196 -168 471 -319
82 -46 227 -131 320 -190 184 -116 291 -171 400 -207 58 -19 91 -23 190 -23
110 1 125 3 180 28 186 86 277 328 261 694 -27 610 -226 1244 -571 1818 -166
277 -301 452 -515 666 -163 164 -255 240 -350 293 -262 143 -493 41 -621 -276
-57 -140 -117 -420 -133 -623 -4 -44 -9 -96 -12 -115 l-6 -35 -20 25 c-29 34
-83 154 -98 215 -9 34 -14 182 -17 458 l-5 407 -208 0 -208 0 -5 -412 c-3
-354 -7 -422 -21 -473 -28 -93 -98 -226 -113 -211 -2 2 -10 66 -18 142 -63
623 -232 941 -511 959 -45 3 -88 0 -124 -10z"/>
</g>
</svg>
